<?xml version="1.0" standalone="no"?><!DOCTYPE svg PUBLIC "-//W3C//DTD SVG 1.1//EN" "http://www.w3.org/Graphics/SVG/1.1/DTD/svg11.dtd"><svg t="1688833535902" class="icon" viewBox="0 0 1024 1024" version="1.1" xmlns="http://www.w3.org/2000/svg" p-id="9444" xmlns:xlink="http://www.w3.org/1999/xlink" width="200" height="200"><path d="M480 128v226.016L407.008 280.96 360.96 327.04l128 128 23.008 21.984 23.008-21.984 128-128L616.96 280.96 544 353.984V128h-64zM96 352v64h96c17.76 0 32 14.24 32 32v130.016L151.008 504.96 104.96 551.04l128 128 23.008 21.984 23.008-21.984 128-128-46.016-46.016L288 577.984V448c0-52.64-43.36-96-96-96H96z m736 0c-52.64 0-96 43.36-96 96v130.016l-72.992-73.024-46.016 46.016 128 128 23.008 21.984 23.008-21.984 128-128-46.016-46.016L800 577.984V448c0-17.76 14.24-32 32-32h96v-64h-96zM96 704v160h832v-160h-64v96H160v-96H96z" p-id="9445" fill="#49ca52"></path></svg>