<svg t="1688915955722" class="icon" viewBox="0 0 1024 1024" version="1.1" xmlns="http://www.w3.org/2000/svg" p-id="11726" width="16" height="16"><path d="M420.266667 832c-17.066667 0-34.133333-6.4-44.8-19.2L104.533333 541.866667c-12.8-12.8-19.2-27.733333-19.2-44.8s6.4-34.133333 19.2-44.8L345.6 211.2c23.466667-23.466667 66.133333-23.466667 89.6 0l270.933333 270.933333c12.8 12.8 19.2 27.733333 19.2 44.8s-6.4 34.133333-19.2 44.8L465.066667 812.8c-10.666667 12.8-27.733333 19.2-44.8 19.2z m-29.866667-597.333333c-6.4 0-10.666667 2.133333-14.933333 6.4L134.4 482.133333c-4.266667 4.266667-6.4 8.533333-6.4 14.933334s2.133333 10.666667 6.4 14.933333L405.333333 782.933333c8.533333 8.533333 21.333333 8.533333 29.866667 0l241.066667-241.066666c4.266667-4.266667 6.4-8.533333 6.4-14.933334s-2.133333-10.666667-6.4-14.933333L405.333333 241.066667c-4.266667-4.266667-8.533333-6.4-14.933333-6.4z" fill="#1aaba8" p-id="11727"></path><path d="M618.666667 832c-17.066667 0-34.133333-6.4-46.933334-19.2L317.866667 558.933333c-12.8-12.8-19.2-29.866667-19.2-46.933333s6.4-34.133333 19.2-46.933333L571.733333 211.2c25.6-25.6 68.266667-25.6 93.866667 0l253.866667 253.866667c25.6 25.6 25.6 68.266667 0 93.866666L665.6 812.8c-12.8 12.8-29.866667 19.2-46.933333 19.2z m0-597.333333c-6.4 0-12.8 2.133333-17.066667 6.4L347.733333 494.933333c-4.266667 4.266667-6.4 10.666667-6.4 17.066667s2.133333 12.8 6.4 17.066667l253.866667 253.866666c8.533333 8.533333 23.466667 8.533333 34.133333 0l253.866667-253.866666c8.533333-8.533333 8.533333-23.466667 0-34.133334L635.733333 241.066667c-4.266667-4.266667-10.666667-6.4-17.066666-6.4zM332.8 480z" fill="#1aaba8" p-id="11728"></path></svg>